<?xml version="1.0" encoding="UTF-8" standalone="no"?>
<!-- Created with Inkscape (http://www.inkscape.org/) -->

<svg
   xmlns:dc="http://purl.org/dc/elements/1.1/"
   xmlns:cc="http://creativecommons.org/ns#"
   xmlns:rdf="http://www.w3.org/1999/02/22-rdf-syntax-ns#"
   xmlns:svg="http://www.w3.org/2000/svg"
   xmlns="http://www.w3.org/2000/svg"
   xmlns:sodipodi="http://sodipodi.sourceforge.net/DTD/sodipodi-0.dtd"
   xmlns:inkscape="http://www.inkscape.org/namespaces/inkscape"
   width="134.1693mm"
   height="134.1693mm"
   viewBox="0 0 134.16929 134.1693"
   version="1.1"
   id="svg8"
   inkscape:version="0.92.2 (5c3e80d, 2017-08-06)"
   sodipodi:docname="icon.svg">
  <defs
     id="defs2" />
  <sodipodi:namedview
     id="base"
     pagecolor="#ffffff"
     bordercolor="#666666"
     borderopacity="1.0"
     inkscape:pageopacity="0.0"
     inkscape:pageshadow="2"
     inkscape:zoom="0.98994949"
     inkscape:cx="219.28137"
     inkscape:cy="290.01918"
     inkscape:document-units="mm"
     inkscape:current-layer="layer1"
     showgrid="false"
     inkscape:window-width="1920"
     inkscape:window-height="1017"
     inkscape:window-x="-8"
     inkscape:window-y="-8"
     inkscape:window-maximized="1"
     fit-margin-top="0"
     fit-margin-left="0"
     fit-margin-right="0"
     fit-margin-bottom="0" />
  <metadata
     id="metadata5">
    <rdf:RDF>
      <cc:Work
         rdf:about="">
        <dc:format>image/svg+xml</dc:format>
        <dc:type
           rdf:resource="http://purl.org/dc/dcmitype/StillImage" />
        <dc:title></dc:title>
      </cc:Work>
    </rdf:RDF>
  </metadata>
  <g
     inkscape:label="Layer 1"
     inkscape:groupmode="layer"
     id="layer1"
     transform="translate(-37.876289,-79.534325)">
    <path
       style="fill:#dcedc8;fill-opacity:1;stroke-width:0.97855747"
       d="M 253.54883 0 A 253.54828 253.54828 0 0 0 0 253.54883 A 253.54828 253.54828 0 0 0 253.54883 507.0957 A 253.54828 253.54828 0 0 0 507.0957 253.54883 A 253.54828 253.54828 0 0 0 253.54883 0 z M 253.54883 84.708984 A 121.1747 121.1747 0 0 1 276.62891 87.115234 C 280.5027 87.64263 283.78355 88.457151 287.95312 89.759766 C 289.73736 90.31717 291.49434 90.917507 293.23633 91.541016 A 121.1747 121.1747 0 0 1 297.5918 93.185547 C 299.32872 93.876142 301.03778 94.606884 302.72852 95.363281 A 121.1747 121.1747 0 0 1 308.82617 98.275391 C 310.92332 99.347567 312.97626 100.47583 314.99219 101.65039 A 121.1747 121.1747 0 0 1 317.63281 103.21094 C 349.91977 123.08596 371.05986 156.17229 375.10547 195.27539 C 378.01472 223.39508 366.46237 256.3208 336.08789 306.48242 C 313.26899 344.16681 257.90967 420.86133 253.52734 420.86133 C 252.94443 420.86133 245.58402 411.89358 237.16992 400.93359 C 169.35904 312.60528 131.60664 243.05678 131.55664 206.37109 C 131.5395 194.00799 135.7792 173.16658 140.73438 161.26367 C 144.61932 151.93156 149.44941 143.32528 155.14062 135.48828 L 155.04102 135.48828 A 121.1747 121.1747 0 0 1 253.54883 84.708984 z M 253.65234 134.16406 A 62.881999 62.881999 0 0 0 190.76953 197.04492 A 62.881999 62.881999 0 0 0 253.65234 259.92773 A 62.881999 62.881999 0 0 0 316.5332 197.04492 A 62.881999 62.881999 0 0 0 253.65234 134.16406 z "
       id="path3751"
       transform="matrix(0.26458333,0,0,0.26458333,37.876289,79.534325)" />
  </g>
</svg>
